<?xml version="1.0" encoding="UTF-8"?>
<svg width="300" height="90" fill="none" version="1.1" viewBox="0 0 300 90" xmlns="http://www.w3.org/2000/svg" xmlns:cc="http://creativecommons.org/ns#" xmlns:dc="http://purl.org/dc/elements/1.1/" xmlns:rdf="http://www.w3.org/1999/02/22-rdf-syntax-ns#">
 <metadata>
  <rdf:RDF>
   <cc:Work rdf:about="">
    <dc:format>image/svg+xml</dc:format>
    <dc:type rdf:resource="http://purl.org/dc/dcmitype/StillImage"/>
    <dc:title/>
   </cc:Work>
  </rdf:RDF>
 </metadata>
 <g fill="#00875f" stroke-width="2.5777">
  <path d="m61.752 64.048c-0.64467-14.293-13.213-16.047-26.913-19.278-7.651-1.8113-12.179-2.5756-12.179-5.8531 0-2.3065 3.0352-4.9774 10.441-4.9774 5.1352 0 8.4617 1.719 9.8977 4.0637 0.2173 0.35288 0.5212 0.64467 0.8831 0.84702 0.3619 0.20209 0.76943 0.30854 1.1839 0.3088h13.656c0.17915 0 0.35572-0.04099 0.51656-0.11935 0.16084-0.07862 0.30184-0.19255 0.41217-0.33355 0.11032-0.141 0.18714-0.30519 0.22451-0.48022 0.03763-0.17502 0.0348-0.35623-0.0082-0.53022-2.6628-10.953-13.055-18.082-26.766-18.082-18.092 0-26.712 10.197-26.712 20.032 0 13.961 13.782 15.19 26.532 18.354 10.735 2.6627 12.683 3.5005 12.683 7.0197 0 3.642-4.8548 5.5865-11.29 5.5865-4.2428 0-9.8513-1.5639-12.541-5.7332-0.22111-0.35649-0.52829-0.65189-0.89329-0.85862-0.365-0.20673-0.77613-0.31834-1.1956-0.32453h-13.526c-0.17466 2e-3 -0.34662 0.04331-0.50329 0.12038-0.1567 0.07733-0.29416 0.18843-0.40235 0.32556-0.10818 0.13713-0.18438 0.29669-0.22297 0.46707-0.038614 0.17038-0.038639 0.34721-1.289e-4 0.51759 2.6926 12.421 14.108 20.062 29.296 20.062 16.014-0.0082 27.985-8.7607 27.427-21.133z"/>
  <path d="m284.36 63.79h-0.15209c-2.8225 0-5.5291 1.1213-7.5242 3.1174-1.9977 1.9959-3.119 4.7029-3.119 7.5255 0 2.8228 1.1213 5.5298 3.119 7.5257 1.9951 1.9959 4.7016 3.1172 7.5242 3.1172h0.15209c1.3971 0 2.7813-0.27529 4.0727-0.81016 1.2914-0.53486 2.4642-1.3187 3.4541-2.307 0.98723-0.98827 1.7708-2.1616 2.307-3.4528 0.53359-1.2914 0.80939-2.6753 0.80939-4.073 0-1.3976-0.2758-2.7815-0.80939-4.0727-0.53615-1.2914-1.3198-2.4645-2.307-3.4528-0.98982-0.98827-2.1626-1.7724-3.4541-2.3073s-2.6756-0.81016-4.0727-0.81016z"/>
  <path d="m211.22 82.527c0 0.30932-0.12295 0.60601-0.34179 0.82485-0.21859 0.21884-0.51554 0.3418-0.82485 0.3418h-12.122c-3.9106-0.01573-7.6559-1.5768-10.42-4.3428-2.7643-2.7661-4.3225-6.513-4.3354-10.423l0.0162-62.924c0-0.15489 0.0306-0.30826 0.09-0.45132 0.0593-0.14306 0.14641-0.273 0.25597-0.38239 0.10955-0.1094 0.23972-0.19608 0.38304-0.25511 0.14306-0.059028 0.29669-0.089239 0.45161-0.088877h13.67c0.15492-3.609e-4 0.30829 0.02985 0.45161 0.088877 0.14332 0.059029 0.27323 0.14571 0.38304 0.25511 0.10955 0.1094 0.19667 0.23934 0.25596 0.38239 0.0593 0.14306 0.09 0.29643 0.09 0.45132v13.983c0 0.30947 0.12296 0.60624 0.34181 0.82508 0.21858 0.21882 0.51553 0.34174 0.82484 0.34174h9.6773c0.15338 0 0.30494 0.03019 0.44671 0.08883 0.14152 0.05862 0.27015 0.14458 0.3784 0.25292 0.10852 0.10836 0.19436 0.23699 0.25313 0.37856 0.0585 0.14156 0.0887 0.29328 0.0887 0.44653v11.878c-7.8e-4 0.30906-0.12399 0.60498-0.34282 0.8233-0.21859 0.21833-0.51502 0.34077-0.82408 0.34077h-9.6744c-0.15363-2.58e-4 -0.30571 0.02964-0.44748 0.08841-0.14203 0.05851-0.27091 0.14486-0.37943 0.25338-0.10827 0.10878-0.19436 0.23792-0.25261 0.37995-0.0583 0.14203-0.0879 0.29437-0.0874 0.44774l0.0464 27.653c0 1.2321 0.48923 2.4137 1.3605 3.285s2.0528 1.3605 3.285 1.3605h6.1495c0.30957 0 0.60626 0.12295 0.8251 0.3418 0.21885 0.21884 0.3418 0.51553 0.3418 0.82511z"/>
  <path d="m164.68 83.716h12.166c0.31215-7.73e-4 0.61116-0.12502 0.8318-0.34566 0.22091-0.2209 0.34515-0.51991 0.34592-0.83207l0.049-41.456c0-4.9934-1.9502-21.435-27.403-21.435-15.207 0-26.143 7.6155-28.95 18.19-0.0461 0.17348-0.0518 0.35546-0.0167 0.53151 0.0351 0.17605 0.11033 0.3418 0.21962 0.48434 0.10929 0.14229 0.25003 0.25776 0.41087 0.33716 0.16111 0.07965 0.33819 0.12115 0.51786 0.12115h13.352c0.41011 0.0077 0.81583-0.08815 1.1793-0.27813 0.3637-0.19023 0.67353-0.46862 0.90139-0.80964 2.448-3.8242 7.9039-5.6628 12.756-5.6628 1.8317-0.02062 3.659 0.18585 5.4399 0.61477 1.3602 0.31344 2.6511 0.87485 3.8077 1.6564 0.88156 0.58384 1.567 1.4198 1.9665 2.3988 0.38613 1.0553 0.42712 2.6248-0.36164 3.5169-0.3253 0.3485-0.72896 0.61426-1.1777 0.7751-2.2222 0.84573-10.385 2.3065-16.447 3.6528-6.9249 1.5394-18.223 3.144-22.798 10.063-1.651 2.4941-2.5838 5.6384-2.5838 9.6092 0 13.64 12.93 20.339 26.206 20.339 7.7324 0 13.379-2.5349 17.491-6.0325 0.0773-0.07398 0.17476-0.12321 0.28019-0.14203 0.10542-0.01856 0.21394-0.0059 0.31215 0.03686 0.0979 0.04253 0.18146 0.11342 0.23946 0.20312 0.0583 0.08971 0.0887 0.19487 0.0874 0.30184v2.9919c3e-3 0.31061 0.1281 0.60755 0.34876 0.82665 0.22039 0.21884 0.51836 0.34206 0.82897 0.34283zm-1.5884-24.122c0 8.0371-8.0508 11.736-17.679 11.736-6.457 0-10.58-2.5024-10.485-6.3482 0.11704-4.6238 4.7246-5.6139 12.511-7.3082 5.8178-1.2674 8.5514-1.3981 14.219-2.7199 0.17218-0.05027 0.35365-0.05851 0.52944-0.02424 0.17606 0.03429 0.34104 0.11058 0.48151 0.22194 0.14023 0.11136 0.2521 0.25467 0.32556 0.4181 0.0735 0.16342 0.10672 0.34205 0.0969 0.5212z"/>
  <path d="m230.04 61.503 42.332-9.1223c0.61349-0.13146 1.1496-0.49259 1.5054-1.0092 0.35315-0.51656 0.49749-1.1491 0.39954-1.7678-3.7866-23.034-21.162-33.016-38.601-29.257-17.187 3.7044-28.178 21.215-24.372 38.869 3.8049 17.655 20.975 28.847 38.165 25.142 14.545-3.1331 23.391-13.134 24.871-25.599 0.0206-0.18508 0-0.37273-0.0645-0.54724-0.0645-0.17476-0.17013-0.33149-0.30933-0.45728-0.13661-0.12579-0.30158-0.21704-0.48202-0.26601-0.18043-0.04897-0.3686-0.05438-0.55162-0.01598l-13.816 2.9919c-0.39181 0.08507-0.75783 0.26627-1.0646 0.52739-0.30417 0.26112-0.54131 0.59389-0.68566 0.96842-1.8585 4.7135-6.1616 7.651-10.978 8.6872-6.8378 1.4742-13.306-1.319-17.092-7.3788-0.10002-0.1593-0.16008-0.34025-0.17502-0.5279-0.0152-0.1874 0.015-0.37556 0.0882-0.54878s0.18688-0.32633 0.33175-0.44619c0.14486-0.11986 0.31653-0.20286 0.50032-0.24256zm-3.8513-14.2c1.2159-6.756 5.7471-11.761 12.324-13.178 6.9192-1.4932 13.349 1.1697 16.986 6.903 0.0979 0.1593 0.15723 0.33974 0.17012 0.52636 0.0129 0.18662-0.0181 0.37376-0.0902 0.54569-0.0747 0.17193-0.18817 0.32375-0.33251 0.44258-0.14435 0.11883-0.31706 0.20106-0.50007 0.23972l-27.157 5.8505c-0.18611 0.04073-0.37943 0.03531-0.56296-0.01598-0.18353-0.05104-0.35185-0.14641-0.49001-0.27761-0.13816-0.1312-0.24204-0.29437-0.30262-0.47506-0.0608-0.18069-0.0763-0.37324-0.0451-0.56141z"/>
  <path d="m122.11 21.146h-17.236c-0.41784-4.64e-4 -0.83104 0.09002-1.2105 0.26521-0.37943 0.17518-0.71633 0.43086-0.98698 0.7493l-19.279 22.621c-0.11187 0.13172-0.26137 0.2258-0.42841 0.27014-0.16729 0.04408-0.34386 0.03582-0.50625-0.0232-0.16213-0.05929-0.30262-0.16703-0.40186-0.30829-0.0995-0.14151-0.15311-0.30983-0.15388-0.4828v-38.257c0-0.30945-0.12295-0.60624-0.3418-0.82506s-0.51553-0.34177-0.82511-0.34177h-14.021c-0.30958 0-0.60626 0.12295-0.82511 0.34177-0.21884 0.21882-0.3418 0.51561-0.3418 0.82506v76.507c0 0.30932 0.12295 0.60601 0.3418 0.82485 0.21884 0.21884 0.51553 0.3418 0.82511 0.3418h14.021c0.30958 0 0.60626-0.12295 0.82511-0.3418 0.21884-0.21884 0.3418-0.51553 0.3418-0.82485v-22.099c0.0013-0.17219 0.05542-0.33974 0.15466-0.48048 0.09924-0.14074 0.23895-0.24797 0.40082-0.307 0.16162-0.05902 0.33767-0.06753 0.50419-0.02397 0.16652 0.04356 0.31602 0.13687 0.42815 0.26756l19.673 22.819c0.26988 0.31293 0.60369 0.56425 0.97925 0.73695 0.37531 0.1727 0.78335 0.26266 1.1966 0.26395h16.542c0.22424 0 0.44386-0.06496 0.63203-0.18662 0.18842-0.12166 0.33768-0.29488 0.43022-0.49929 0.0923-0.20441 0.12372-0.43098 0.0908-0.65266-0.033-0.22168-0.12915-0.42944-0.27711-0.59776l-25.48-29.002c-0.13533-0.15466-0.21008-0.3534-0.21008-0.55884 0-0.2057 0.07475-0.40418 0.21008-0.55909l25.567-29.056c0.10827-0.12236 0.17863-0.27344 0.20286-0.43498 0.0243-0.16154 9.7e-4 -0.32664-0.0665-0.47534-0.0676-0.1487-0.17683-0.27465-0.31447-0.36265-0.13765-0.08798-0.29772-0.13424-0.46115-0.13319z"/>
  <path d="m273.56 21.108h4.7352v0.88666h-1.8559v4.9638h-1.0259v-4.9638h-1.8533z"/>
  <path d="m278.96 21.108h1.4409l1.6162 4.5802h0.0155l1.5724-4.5802h1.4254v5.8504h-0.97435v-4.515h-0.0155l-1.6316 4.515h-0.8429l-1.6316-4.515h-0.0181v4.515h-0.97693z"/>
 </g>
</svg>
